<?xml version="1.0" encoding="utf-8"?>
<!-- Generator: Adobe Illustrator 16.0.0, SVG Export Plug-In . SVG Version: 6.00 Build 0)  -->
<!DOCTYPE svg PUBLIC "-//W3C//DTD SVG 1.0//EN" "http://www.w3.org/TR/2001/REC-SVG-20010904/DTD/svg10.dtd">
<svg version="1.0" id="Layer_1" xmlns="http://www.w3.org/2000/svg" xmlns:xlink="http://www.w3.org/1999/xlink" x="0px" y="0px"
	 width="300px" height="71.891px" viewBox="0 0 300 71.891" enable-background="new 0 0 300 71.891" xml:space="preserve">
<g>
	<g>
		<g>
			<path fill="#39BB9D" d="M58.793,27.316C51.895,26.607,46.5,20.776,46.5,13.692c0-4.727-3.832-8.558-8.559-8.558
				c-3.148,0-5.898,1.697-7.385,4.228c0,0-1.049-0.831-2.217-1.388c-1.133-0.594-2.371-0.935-2.371-0.935
				C28.307,2.841,32.793,0,37.941,0c7.562,0,13.693,6.13,13.693,13.692c0,4.727,3.832,8.559,8.561,8.559
				c0.598,0,1.195,0.037,1.773,0.111c0,0-0.16,0.864-0.869,2.131C60.34,25.848,59.623,26.309,58.793,27.316z"/>
			<path fill="#388E7D" d="M58.797,44.588c-4.375-5.377-4.074-13.313,0.936-18.323c3.342-3.342,3.342-8.761,0-12.103
				c-2.227-2.225-5.371-2.969-8.213-2.231c0,0-0.152-1.33-0.584-2.548c-0.383-1.222-1.018-2.338-1.018-2.338
				c4.625-1.316,9.805-0.154,13.445,3.486c5.348,5.348,5.348,14.018,0,19.364c-3.344,3.343-3.344,8.761,0,12.104
				c0.422,0.422,0.818,0.879,1.174,1.342c0,0-0.9,0.553-2.059,0.871C60.771,44.684,60.07,44.443,58.797,44.588z"/>
			<path fill="#0074BC" d="M46.574,56.789c0.707-6.896,6.537-12.277,13.621-12.277c4.729,0,8.561-3.83,8.561-8.557
				c0-3.146-1.699-5.896-4.23-7.384c0,0,0.834-1.049,1.389-2.215c0.594-1.134,0.936-2.373,0.936-2.373
				c4.199,2.339,7.041,6.823,7.041,11.972c0,7.562-6.131,13.693-13.695,13.693c-4.727,0-8.559,3.832-8.559,8.559
				c0,0.598-0.039,1.188-0.113,1.764c0,0-0.701-0.096-2.111-0.863C48.047,58.363,47.561,57.545,46.574,56.789z"/>
			<path fill="#934083" d="M29.314,56.795c5.377-4.377,13.309-4.068,18.318,0.941c3.344,3.342,8.762,3.342,12.105,0
				c2.225-2.225,2.969-5.369,2.23-8.209c0,0,1.33-0.156,2.549-0.586c1.221-0.383,2.336-1.021,2.336-1.021
				c1.316,4.623,0.156,9.807-3.484,13.447c-5.348,5.348-14.02,5.348-19.367,0c-3.344-3.342-8.762-3.342-12.105,0
				c-0.422,0.424-0.865,0.812-1.328,1.168c0,0-0.455-0.547-0.881-2.076C29.271,58.961,29.438,57.99,29.314,56.795z"/>
			<path fill="#C9414E" d="M17.096,44.582c6.898,0.709,12.295,6.531,12.295,13.615c0,4.727,3.832,8.559,8.559,8.559
				c3.146,0,5.896-1.697,7.385-4.229c0,0,1.049,0.832,2.215,1.389c1.135,0.594,2.373,0.936,2.373,0.936
				c-2.34,4.199-6.824,7.039-11.973,7.039c-7.564,0-13.695-6.131-13.695-13.693c0-4.725-3.832-8.557-8.559-8.557
				c-0.6,0-1.188-0.039-1.766-0.113c0,0,0.066-0.672,0.834-2.082C15.508,46.08,16.289,45.582,17.096,44.582z"/>
			<path fill="#F58345" d="M17.096,27.305c4.377,5.379,4.072,13.312-0.938,18.32c-3.344,3.344-3.344,8.762,0,12.104
				c2.225,2.225,5.371,2.969,8.211,2.23c0,0,0.154,1.33,0.586,2.549c0.381,1.221,1.016,2.338,1.016,2.338
				c-4.623,1.316-9.803,0.154-13.445-3.486c-5.348-5.348-5.348-14.018,0-19.363c3.344-3.344,3.344-8.763,0-12.104
				c-0.422-0.423-0.811-0.866-1.168-1.328c0,0,0.521-0.431,2.062-0.884C14.91,27.24,15.867,27.455,17.096,27.305z"/>
			<path fill="#FDBA4D" d="M29.316,15.101c-0.709,6.897-6.537,12.277-13.623,12.277c-4.727,0-8.559,3.831-8.559,8.558
				c0,3.146,1.697,5.896,4.229,7.385c0,0-0.832,1.047-1.389,2.215c-0.594,1.133-0.934,2.371-0.934,2.371
				C4.84,45.568,2,41.084,2,35.936c0-7.562,6.131-13.692,13.693-13.692c4.729,0,8.561-3.832,8.561-8.559
				c0-0.599,0.037-1.188,0.111-1.766c0,0,0.703,0.096,2.113,0.864C27.842,13.527,28.33,14.345,29.316,15.101z"/>
			<path fill="#4FC6E0" d="M46.57,15.104c-5.379,4.376-13.303,4.059-18.314-0.95c-3.342-3.343-8.762-3.343-12.104,0
				c-2.225,2.225-2.969,5.37-2.232,8.211c0,0-1.33,0.153-2.549,0.585c-1.221,0.382-2.338,1.017-2.338,1.017
				c-1.316-4.624-0.152-9.804,3.488-13.443c5.348-5.348,14.018-5.348,19.367,0c3.342,3.342,8.762,3.342,12.104,0
				c0.424-0.424,0.867-0.812,1.328-1.169c0,0,0.43,0.565,0.883,2.105C46.643,12.95,46.408,13.873,46.57,15.104z"/>
		</g>
		<g>
			<linearGradient id="SVGID_1_" gradientUnits="userSpaceOnUse" x1="56.5508" y1="23.7354" x2="60.6186" y2="25.0907">
				<stop  offset="0" style="stop-color:#39BB9D"/>
				<stop  offset="1" style="stop-color:#1D6164"/>
			</linearGradient>
			<path fill="url(#SVGID_1_)" d="M56.619,21.471c1.088,0.501,2.299,0.78,3.576,0.78c0.598,0,1.195,0.037,1.773,0.111
				c0,0-0.16,0.864-0.869,2.131c-0.76,1.354-1.477,1.815-2.307,2.823c-1.441-0.147-2.814-0.519-4.088-1.078"/>
			<linearGradient id="SVGID_2_" gradientUnits="userSpaceOnUse" x1="59.2729" y1="40.7285" x2="61.938" y2="44.0431">
				<stop  offset="0" style="stop-color:#388E7D"/>
				<stop  offset="1" style="stop-color:#1D564B"/>
			</linearGradient>
			<path fill="url(#SVGID_2_)" d="M61.377,38.893c0.416,1.135,1.076,2.197,1.986,3.107c0.422,0.422,0.818,0.879,1.174,1.342
				c0,0-0.9,0.553-2.059,0.871c-1.707,0.471-2.408,0.23-3.682,0.375c-1.006-1.236-1.764-2.607-2.275-4.049"/>
			
				<linearGradient id="SVGID_3_" gradientUnits="userSpaceOnUse" x1="-89.7266" y1="22.9023" x2="-91.639" y2="19.1042" gradientTransform="matrix(0.7071 0.7071 -0.7071 0.7071 128.593 105.408)">
				<stop  offset="0.0429" style="stop-color:#2B3990"/>
				<stop  offset="1" style="stop-color:#0074BC"/>
			</linearGradient>
			<path fill="url(#SVGID_3_)" d="M52.432,54.584c-0.51,1.094-0.793,2.314-0.793,3.6c0,0.598-0.045,1.201-0.119,1.779
				c0,0-1.027-0.246-2.072-0.84c-1.539-0.873-1.865-1.539-2.867-2.338c0.162-1.584,0.596-3.09,1.252-4.471"/>
			
				<linearGradient id="SVGID_4_" gradientUnits="userSpaceOnUse" x1="-244.9648" y1="110.1465" x2="-246.8772" y2="106.3484" gradientTransform="matrix(0 1 -1 0 140.1816 304.4082)">
				<stop  offset="0" style="stop-color:#511748"/>
				<stop  offset="1" style="stop-color:#934083"/>
			</linearGradient>
			<path fill="url(#SVGID_4_)" d="M35.021,59.375c-1.133,0.416-2.195,1.076-3.105,1.986c-0.424,0.424-0.881,0.818-1.342,1.174
				c0,0-0.553-0.9-0.873-2.059c-0.471-1.707-0.229-2.408-0.373-3.682c1.236-1.006,2.607-1.764,4.047-2.275"/>
			<path fill="#388E7D" d="M50.936,9.383"/>
			
				<linearGradient id="SVGID_5_" gradientUnits="userSpaceOnUse" x1="-334.6064" y1="277.5566" x2="-336.5186" y2="273.7591" gradientTransform="matrix(-0.7071 0.7071 -0.7071 -0.7071 -24.6092 479.8205)">
				<stop  offset="0" style="stop-color:#741D26"/>
				<stop  offset="1" style="stop-color:#C9414E"/>
			</linearGradient>
			<path fill="url(#SVGID_5_)" d="M19.303,50.438c-1.094-0.51-2.312-0.793-3.6-0.793c-0.598,0-1.201-0.045-1.779-0.119
				c0,0,0.246-1.025,0.84-2.072c0.873-1.539,1.539-1.865,2.338-2.867c1.584,0.162,3.092,0.596,4.471,1.252"/>
			
				<linearGradient id="SVGID_6_" gradientUnits="userSpaceOnUse" x1="-317.627" y1="455.2559" x2="-319.5394" y2="451.4577" gradientTransform="matrix(-1 0 0 -1 -303.1797 483.2773)">
				<stop  offset="0" style="stop-color:#C0542F"/>
				<stop  offset="1" style="stop-color:#F58345"/>
			</linearGradient>
			<path fill="url(#SVGID_6_)" d="M14.516,33.008c-0.414-1.133-1.078-2.196-1.986-3.105c-0.424-0.424-0.818-0.882-1.174-1.343
				c0,0,0.9-0.552,2.059-0.872c1.707-0.471,2.408-0.229,3.68-0.374c1.008,1.236,1.766,2.607,2.277,4.048"/>
			
				<linearGradient id="SVGID_7_" gradientUnits="userSpaceOnUse" x1="-223.2129" y1="552.9609" x2="-221.0561" y2="556.6252" gradientTransform="matrix(-0.7071 -0.7071 0.7071 -0.7071 -522.9299 250.6154)">
				<stop  offset="0" style="stop-color:#FDBA4D"/>
				<stop  offset="1" style="stop-color:#DD8131"/>
			</linearGradient>
			<path fill="url(#SVGID_7_)" d="M23.459,17.306c0.51-1.095,0.793-2.314,0.793-3.601c0-0.599,0.045-1.201,0.119-1.779
				c0,0,1.025,0.246,2.072,0.84c1.539,0.873,1.865,1.539,2.867,2.337c-0.162,1.586-0.596,3.092-1.252,4.472"/>
			
				<linearGradient id="SVGID_8_" gradientUnits="userSpaceOnUse" x1="67.2046" y1="127.4971" x2="71.2731" y2="128.8526" gradientTransform="matrix(0.7071 -0.7071 0.7071 0.7071 -95.215 -28.4748)">
				<stop  offset="0" style="stop-color:#4FC6E0"/>
				<stop  offset="1" style="stop-color:#0E7496"/>
			</linearGradient>
			<path fill="url(#SVGID_8_)" d="M40.906,12.507c1.123-0.415,2.178-1.074,3.08-1.977c0.424-0.423,0.871-0.818,1.334-1.175
				c0,0,0.498,0.724,0.891,2.121c0.42,1.496,0.24,2.328,0.365,3.628c-1.123,0.913-2.357,1.623-3.652,2.128"/>
		</g>
	</g>
	<g>
		<g>
			<g>
				<path fill="#082E54" d="M142.67,21.451c1.93,0,3.596,0.271,5,0.812s2.555,1.312,3.453,2.31c0.896,0.999,1.564,2.183,2.004,3.554
					c0.441,1.371,0.66,2.886,0.66,4.545c0,0.812-0.1,1.472-0.303,1.979c-0.205,0.508-0.482,0.906-0.838,1.193
					s-0.762,0.49-1.219,0.608c-0.457,0.119-0.939,0.178-1.447,0.178h-14.621c0,1.592,0.221,2.943,0.662,4.061
					s1.027,2.023,1.758,2.717s1.58,1.193,2.547,1.498c0.969,0.305,2.012,0.457,3.133,0.457c1.123,0,2.227-0.145,3.312-0.43
					c1.088-0.289,1.988-0.617,2.701-0.992c0.406-0.234,0.729-0.152,0.965,0.254l1.066,2.133c0.236,0.475,0.135,0.812-0.305,1.016
					c-1.219,0.744-2.531,1.242-3.936,1.496s-2.783,0.383-4.137,0.383c-1.896,0-3.598-0.273-5.102-0.812
					c-1.508-0.543-2.785-1.371-3.834-2.488c-1.051-1.117-1.854-2.539-2.412-4.266c-0.559-1.725-0.836-3.789-0.836-6.193
					c0-2.233,0.295-4.222,0.887-5.965c0.592-1.742,1.414-3.206,2.463-4.392c1.049-1.184,2.285-2.09,3.705-2.716
					C139.42,21.764,140.977,21.451,142.67,21.451z M149.625,33.077c0-1.048-0.102-2.057-0.307-3.021
					c-0.203-0.965-0.568-1.811-1.096-2.539c-0.525-0.728-1.238-1.303-2.139-1.726s-2.029-0.635-3.389-0.635
					c-1.121,0-2.113,0.22-2.98,0.66s-1.598,1.024-2.191,1.751c-0.596,0.729-1.062,1.566-1.402,2.514s-0.543,1.947-0.609,2.995
					H149.625z"/>
				<path fill="#082E54" d="M158.256,35.768c0-1.896,0.236-3.705,0.711-5.433c0.473-1.726,1.219-3.249,2.232-4.568
					c1.016-1.32,2.293-2.369,3.834-3.147s3.377-1.168,5.51-1.168c0.777,0,1.699,0.043,2.766,0.128
					c1.066,0.086,2.158,0.301,3.275,0.645v-7.953c0-0.338,0.057-0.55,0.174-0.635c0.119-0.084,0.328-0.128,0.627-0.128h2.812
					c0.268,0,0.469,0.044,0.602,0.128c0.133,0.085,0.201,0.297,0.201,0.635v32.21c0,0.441-0.203,0.746-0.607,0.914
					c-1.756,0.777-3.555,1.277-5.395,1.496c-1.842,0.221-3.521,0.332-5.041,0.332c-2.127,0-3.926-0.314-5.395-0.941
					c-1.469-0.625-2.678-1.521-3.623-2.689s-1.629-2.58-2.051-4.24C158.467,39.695,158.256,37.833,158.256,35.768z M162.824,35.766
					c0,1.785,0.186,3.285,0.559,4.496s0.896,2.197,1.574,2.955s1.506,1.305,2.488,1.641c0.982,0.338,2.082,0.506,3.299,0.506
					c0.846,0,1.836-0.084,2.971-0.254c1.133-0.166,2.09-0.387,2.869-0.656V26.169c-1.287-0.371-2.371-0.605-3.25-0.708
					c-0.881-0.101-1.709-0.151-2.488-0.151c-1.15,0-2.217,0.202-3.197,0.606c-0.982,0.404-1.828,1.026-2.539,1.868
					c-0.711,0.843-1.27,1.92-1.676,3.234C163.027,32.331,162.824,33.914,162.824,35.766z"/>
				<path fill="#082E54" d="M211.916,45.363c1.152,0,2.277-0.152,3.377-0.457s2.021-0.643,2.768-1.016
					c0.305-0.168,0.523-0.211,0.66-0.127c0.135,0.084,0.254,0.213,0.355,0.381l1.014,2.145c0.271,0.445,0.188,0.805-0.254,1.08
					c-1.285,0.721-2.689,1.209-4.213,1.467s-2.979,0.387-4.365,0.387c-3.725,0-6.566-1.145-8.529-3.428s-2.945-5.678-2.945-10.18
					c0-2.165,0.279-4.12,0.838-5.863c0.559-1.742,1.354-3.231,2.387-4.468c1.031-1.235,2.293-2.184,3.781-2.843
					c1.49-0.66,3.166-0.99,5.027-0.99c1.354,0,2.646,0.136,3.883,0.406c1.234,0.271,2.428,0.729,3.578,1.371
					c0.475,0.271,0.576,0.626,0.307,1.066l-1.068,2.081c-0.1,0.202-0.211,0.347-0.328,0.432c-0.119,0.085-0.33,0.043-0.635-0.128
					c-0.812-0.372-1.693-0.676-2.641-0.913c-0.949-0.236-1.963-0.356-3.045-0.356c-1.355,0-2.514,0.28-3.479,0.837
					s-1.76,1.308-2.387,2.254c-0.625,0.945-1.082,2.024-1.369,3.24c-0.289,1.216-0.434,2.498-0.434,3.849s0.119,2.617,0.355,3.797
					c0.238,1.184,0.652,2.219,1.244,3.115c0.592,0.895,1.379,1.596,2.361,2.102C209.141,45.109,210.395,45.363,211.916,45.363z"/>
				<path fill="#082E54" d="M259.1,46.547c-0.119,0.086-0.33,0.127-0.635,0.127h-2.793c-0.271,0-0.473-0.041-0.609-0.127
					c-0.135-0.086-0.203-0.297-0.203-0.637V34.417c0-1.526-0.127-2.857-0.381-3.993c-0.254-1.137-0.693-2.087-1.318-2.851
					c-0.627-0.763-1.473-1.331-2.539-1.703c-1.066-0.373-2.412-0.561-4.035-0.561c-0.373,0-1,0.025-1.881,0.076
					c-0.879,0.051-1.861,0.161-2.943,0.331V47.9c0,0.338-0.068,0.551-0.203,0.637c-0.137,0.084-0.338,0.127-0.609,0.127h-2.791
					c-0.273,0-0.475-0.043-0.611-0.127c-0.135-0.084-0.203-0.297-0.203-0.635V25.767c0-1.15,0.23-2.039,0.686-2.666
					c0.459-0.625,1.295-1.023,2.514-1.193c0.371-0.066,0.838-0.126,1.396-0.177s1.143-0.102,1.75-0.152
					c0.611-0.051,1.201-0.084,1.777-0.102c0.576-0.017,1.066-0.025,1.473-0.025c2.166,0,4.027,0.237,5.586,0.71
					c1.555,0.475,2.832,1.228,3.832,2.26c0.998,1.033,1.734,2.361,2.209,3.986c0.473,1.624,0.711,3.587,0.711,5.889v11.616
					C259.277,46.25,259.217,46.463,259.1,46.547z"/>
				<path fill="#082E54" d="M279.266,22.923c1.285-0.541,2.758-0.921,4.416-1.142c1.658-0.22,3.182-0.33,4.57-0.33
					c3.383,0,5.855,0.753,7.412,2.259c1.557,1.507,2.336,3.698,2.336,6.575v15.891c0,0.676-0.256,1.117-0.762,1.32
					c-1.523,0.676-3.172,1.133-4.951,1.371c-1.777,0.234-3.479,0.355-5.102,0.355c-2.199,0-4.004-0.23-5.406-0.688
					c-1.406-0.459-2.514-1.078-3.326-1.859s-1.379-1.68-1.701-2.699c-0.322-1.018-0.482-2.086-0.482-3.207
					c0-1.152,0.195-2.281,0.584-3.386c0.389-1.103,1.025-2.07,1.904-2.902c0.881-0.83,2.021-1.501,3.426-2.011
					s3.123-0.765,5.154-0.765h6.193v-1.107c0-0.806-0.074-1.528-0.229-2.166c-0.152-0.638-0.449-1.192-0.889-1.663
					c-0.439-0.469-1.059-0.83-1.854-1.083c-0.795-0.251-1.818-0.377-3.07-0.377c-1.186,0-2.447,0.101-3.781,0.305
					c-0.914,0.139-1.713,0.293-2.396,0.463 M293.48,35.565h-5.889c-0.609,0-1.312,0.042-2.107,0.126
					c-0.795,0.086-1.549,0.305-2.26,0.66s-1.312,0.882-1.801,1.574c-0.492,0.695-0.736,1.648-0.736,2.867
					c0,0.914,0.168,1.684,0.508,2.312c0.338,0.625,0.795,1.115,1.369,1.471c0.576,0.357,1.252,0.609,2.031,0.762
					s1.625,0.229,2.539,0.229c0.305,0,0.701-0.008,1.193-0.025c0.49-0.018,1.033-0.068,1.625-0.152s1.191-0.186,1.801-0.305
					c0.609-0.117,1.186-0.279,1.727-0.482V35.565z"/>
				<g>
					<path fill="#082E54" d="M193.082,45.994c0,0.338-0.059,0.551-0.178,0.635c-0.119,0.086-0.33,0.127-0.635,0.127h-2.742
						c-0.27,0-0.48-0.041-0.633-0.127c-0.154-0.084-0.23-0.297-0.23-0.635V22.771c0-0.337,0.076-0.549,0.23-0.634
						c0.152-0.085,0.363-0.127,0.633-0.127h2.742c0.305,0,0.516,0.042,0.635,0.127s0.178,0.297,0.178,0.634V45.994z"/>
					<path fill="#082E54" d="M188.672,46.127c0,1.236,2.09,2.596,3.328,2.596c1.234,0,1.092-1.418,1.092-2.654
						s-1.004-2.24-2.24-2.24S188.672,44.891,188.672,46.127z"/>
					<g>
						<path fill="#082E54" d="M188.533,14.389c0-1.337,2.26-2.807,3.598-2.807s1.18,1.532,1.18,2.87c0,1.337-1.082,2.42-2.42,2.42
							C189.555,16.872,188.533,15.726,188.533,14.389z"/>
					</g>
				</g>
				<g>
					<path fill="#082E54" d="M230.43,45.994c0,0.338-0.059,0.551-0.178,0.635c-0.119,0.086-0.33,0.127-0.635,0.127h-2.742
						c-0.27,0-0.482-0.041-0.635-0.127c-0.152-0.084-0.229-0.297-0.229-0.635V22.771c0-0.337,0.076-0.549,0.229-0.634
						s0.365-0.127,0.635-0.127h2.742c0.305,0,0.516,0.042,0.635,0.127s0.178,0.297,0.178,0.634V45.994z"/>
					<path fill="#082E54" d="M226.02,46.127c0,1.236,2.09,2.596,3.326,2.596s1.092-1.418,1.092-2.654s-1.002-2.24-2.238-2.24
						S226.02,44.891,226.02,46.127z"/>
					<g>
						<path fill="#082E54" d="M225.879,14.389c0-1.337,2.262-2.807,3.598-2.807c1.338,0,1.184,1.532,1.184,2.87
							c0,1.337-1.086,2.42-2.422,2.42C226.9,16.872,225.879,15.726,225.879,14.389z"/>
					</g>
				</g>
				<g>
					<path fill="#082E54" d="M270.439,45.994c0,0.338-0.061,0.551-0.178,0.635c-0.119,0.086-0.33,0.127-0.635,0.127h-2.742
						c-0.271,0-0.482-0.041-0.635-0.127c-0.152-0.084-0.229-0.297-0.229-0.635V22.771c0-0.337,0.076-0.549,0.229-0.634
						s0.363-0.127,0.635-0.127h2.742c0.305,0,0.516,0.042,0.635,0.127c0.117,0.085,0.178,0.297,0.178,0.634V45.994z"/>
					<path fill="#082E54" d="M266.027,46.127c0,1.236,2.092,2.596,3.328,2.596s1.092-1.418,1.092-2.654s-1.002-2.24-2.24-2.24
						C266.973,43.828,266.027,44.891,266.027,46.127z"/>
					<g>
						<path fill="#082E54" d="M265.889,14.389c0-1.337,2.262-2.807,3.6-2.807c1.336,0,1.18,1.532,1.18,2.87
							c0,1.337-1.084,2.42-2.42,2.42C266.91,16.872,265.889,15.726,265.889,14.389z"/>
					</g>
				</g>
				<g>
					<path fill="#082E54" d="M176.572,14.153c0-1.241,2.1-2.605,3.34-2.605c1.242,0,1.098,1.424,1.098,2.665
						s-1.006,2.247-2.248,2.247C177.521,16.46,176.572,15.396,176.572,14.153z"/>
				</g>
				<path fill="#082E54" d="M218.023,43.93c0.891-0.619,2.92,0.211,3.537,1.102c0.621,0.895-0.475,1.5-1.367,2.117
					c-0.895,0.621-2.119,0.398-2.738-0.494S217.129,44.549,218.023,43.93z"/>
				<path fill="#082E54" d="M217.611,26.704c0.885,0.614,2.896-0.208,3.512-1.096c0.613-0.885-0.473-1.485-1.359-2.1
					c-0.885-0.614-2.102-0.395-2.715,0.491C216.434,24.886,216.725,26.089,217.611,26.704z"/>
				<path fill="#082E54" d="M149.504,43.959c0.871-0.604,2.848,0.205,3.451,1.076c0.604,0.869-0.465,1.459-1.334,2.062
					c-0.871,0.604-2.064,0.387-2.67-0.482C148.348,45.746,148.635,44.562,149.504,43.959z"/>
				<path fill="#082E54" d="M254.869,46.078c0,1.234,2.09,2.594,3.326,2.594s1.092-1.418,1.092-2.652c0-1.238-1-2.24-2.238-2.24
					C255.812,43.779,254.869,44.84,254.869,46.078z"/>
			</g>
			<path fill="#082E54" d="M281.301,26.087c-0.957,0.386-2.664-0.811-3.049-1.77c-0.385-0.958,0.758-1.288,1.717-1.673
				c0.957-0.386,2.047,0.077,2.432,1.035C282.787,24.638,282.26,25.701,281.301,26.087z"/>
			<g>
				<path fill="#082E54" d="M104.387,27.826c-0.627-0.764-1.662-1.522-2.729-1.895c-1.064-0.372-2.41-0.561-4.035-0.561
					c-0.373,0-1,0.025-1.879,0.077c-0.881,0.05-1.861,0.16-2.943,0.33v22.183c0,0.34-0.068,0.553-0.203,0.637
					c-0.137,0.086-0.34,0.129-0.609,0.129h-2.793c-0.271,0-0.475-0.043-0.609-0.129c-0.137-0.084-0.203-0.297-0.203-0.635V25.828
					c0-1.149,0.229-2.039,0.686-2.665s1.295-1.023,2.514-1.193c0.371-0.067,0.838-0.127,1.395-0.178
					c0.559-0.051,1.145-0.101,1.752-0.152c0.609-0.051,1.201-0.084,1.777-0.101c0.576-0.018,1.066-0.026,1.473-0.026
					c2.166,0,4.027,0.237,5.584,0.711s2.834,1.228,3.834,2.259"/>
			</g>
			<g>
				<path fill="#082E54" d="M125.576,46.609c-0.119,0.086-0.33,0.127-0.635,0.127h-2.793c-0.27,0-0.473-0.041-0.609-0.127
					c-0.135-0.086-0.201-0.297-0.201-0.637V34.479c0-1.525-0.127-2.857-0.383-3.993c-0.252-1.136-0.693-2.087-1.318-2.851
					c-0.627-0.763-1.459-1.372-2.539-1.703c-3.641-1.118-7.176-0.248-8.398,0.35v21.68c0,0.34-0.068,0.553-0.203,0.637
					c-0.135,0.086-0.338,0.129-0.609,0.129h-2.791c-0.271,0-0.475-0.043-0.609-0.129c-0.137-0.084-0.205-0.297-0.205-0.635V25.828
					c0-1.149,0.98-1.951,1.641-2.299c0.658-0.349,3.498-2.017,7.957-2.017c2.164,0,3.566,0.237,5.123,0.711s2.834,1.228,3.832,2.259
					c0.998,1.034,1.734,2.361,2.209,3.986c0.475,1.624,0.711,3.588,0.711,5.889v11.617
					C125.754,46.312,125.693,46.523,125.576,46.609z"/>
				<path fill="#082E54" d="M121.346,46.139c0,1.236,2.092,2.596,3.328,2.596s1.092-1.418,1.092-2.654s-1.002-2.24-2.24-2.24
					C122.289,43.84,121.346,44.902,121.346,46.139z"/>
			</g>
		</g>
	</g>
</g>
</svg>
