<?xml version="1.0" encoding="utf-8"?>
<!-- Generator: Adobe Illustrator 16.0.0, SVG Export Plug-In . SVG Version: 6.00 Build 0)  -->
<!DOCTYPE svg PUBLIC "-//W3C//DTD SVG 1.0//EN" "http://www.w3.org/TR/2001/REC-SVG-20010904/DTD/svg10.dtd">
<svg version="1.0" xmlns="http://www.w3.org/2000/svg" xmlns:xlink="http://www.w3.org/1999/xlink" x="0px" y="0px" width="50px"
	 height="50px" viewBox="0 0 50 50" enable-background="new 0 0 50 50" xml:space="preserve">
<g id="Layer_1" display="none">
	<g display="inline">
		<g>
			<g>
				<g>
					<path fill="#FFFFFF" d="M15.408,30.771L1,46.552l0,0c3.725,3.381,9.557,3.136,12.938-0.638l8.233-9.017L15.408,30.771z"/>
				</g>
				<path fill="#FFFFFF" d="M44.418,4.015c0.295,0,0.735,0.098,1.078,0.441c0.344,0.294,0.49,0.686,0.539,1.126
					c0,0.441-0.146,0.833-0.44,1.176L20.308,34.594l-2.45-2.205L43.193,4.554C43.635,4.113,44.125,4.015,44.418,4.015 M44.418,1.074
					c-1.225,0-2.499,0.49-3.38,1.52L13.742,32.585l6.763,6.175L47.8,8.719c1.716-1.862,1.568-4.754-0.294-6.469
					C46.624,1.466,45.496,1.074,44.418,1.074L44.418,1.074z"/>
			</g>
		</g>
		<g>
			<path fill="#FFFFFF" d="M22.81,48.729h-5.88c-0.931,0-1.715-0.783-1.715-1.714c0-0.932,0.785-1.716,1.715-1.716h5.88
				c0.933,0,1.716,0.784,1.716,1.716C24.525,47.945,23.742,48.729,22.81,48.729z"/>
			<path fill="#FFFFFF" d="M34.815,48.729h-6.42c-0.932,0-1.715-0.783-1.715-1.714c0-0.932,0.783-1.716,1.715-1.716h6.42
				c0.931,0,1.716,0.784,1.716,1.716C36.531,47.945,35.746,48.729,34.815,48.729z"/>
			<path fill="#FFFFFF" d="M46.282,48.729h-5.881c-0.931,0-1.714-0.783-1.714-1.714c0-0.932,0.783-1.716,1.714-1.716h5.881
				c0.932,0,1.716,0.784,1.716,1.716C47.998,47.945,47.263,48.729,46.282,48.729z"/>
		</g>
	</g>
</g>
<g id="Layer_6" display="none">
	<path display="inline" fill="#FFFFFF" d="M38.679,19.672h-8.353v-8.353c0-0.575-0.48-1.008-1.008-1.008h-8.64
		c-0.576,0-1.008,0.48-1.008,1.008v8.353h-8.352c-0.576,0-1.008,0.48-1.008,1.008v8.641c0,0.575,0.48,1.008,1.008,1.008h8.352v8.353
		c0,0.576,0.48,1.008,1.008,1.008h8.64c0.575,0,1.008-0.479,1.008-1.008v-8.353h8.353c0.576,0,1.008-0.48,1.008-1.008V20.68
		C39.734,20.104,39.255,19.672,38.679,19.672z"/>
	<path display="inline" fill="#FFFFFF" d="M24.976,3.879L24.976,3.879c2.208,0,4.416,0.336,6.527,1.056
		c5.376,1.728,9.745,5.472,12.289,10.464c2.544,5.04,3.023,10.752,1.248,16.127C42.208,40.265,34.144,46.12,24.976,46.12
		c-2.208,0-4.416-0.336-6.528-1.056C13.072,43.337,8.704,39.592,6.16,34.6c-2.544-5.04-3.024-10.752-1.248-16.128
		C7.744,9.736,15.808,3.879,24.976,3.879 M24.976,1C14.848,1,5.439,7.432,2.176,17.56c-4.08,12.624,2.784,26.16,15.408,30.24
		c2.449,0.816,4.944,1.2,7.44,1.2c10.127,0,19.536-6.432,22.8-16.56C51.903,19.816,45.04,6.28,32.416,2.2
		C29.92,1.384,27.424,1,24.976,1L24.976,1z"/>
</g>
<g id="Layer_2" display="none">
	<g display="inline">
		<g>
			<path fill="#FFFFFF" d="M40.083,25.816C40.035,25.816,40.035,25.816,40.083,25.816l-6.482-0.047l-0.72,2.016
				c-0.192,0.576-0.721,0.961-1.297,0.961c-0.576,0.049-1.152-0.289-1.392-0.816l-1.585-3.41l-1.489,10.228
				c-0.096,0.721-0.72,1.248-1.441,1.248l0,0c-0.72,0-1.345-0.527-1.44-1.248L22.412,22.36l-1.344,7.683
				c-0.097,0.672-0.672,1.152-1.345,1.199c-0.672,0.049-1.296-0.385-1.488-1.055l-1.345-4.611l-7.011-0.048
				c-0.816,0-1.44-0.673-1.44-1.44c0-0.816,0.672-1.441,1.44-1.441l8.115,0.097c0.528,0,1.008,0.288,1.248,0.721l1.873-10.468
				c0.096-0.672,0.721-1.2,1.44-1.2l0,0c0.721,0,1.296,0.528,1.393,1.248l1.729,11.572l0.769-5.281
				c0.096-0.624,0.576-1.152,1.2-1.201c0.625-0.096,1.248,0.24,1.536,0.817l2.161,4.609c0.24-0.385,0.72-0.673,1.2-0.673l0,0
				l7.539,0.097c0.816,0,1.44,0.672,1.44,1.44S40.852,25.816,40.083,25.816z"/>
		</g>
		<path fill="#FFFFFF" d="M35.474,4.497c3.985,0,7.826,2.689,9.651,6.722c2.257,5.042,0.769,10.948-4.033,16.277
			c-6.051,6.676-12.677,13.734-16.086,17.336C21.596,41.23,14.921,34.123,8.967,27.545c-4.802-5.33-6.29-11.284-4.033-16.277
			C6.71,7.234,10.6,4.545,14.585,4.545c3.121,0,5.906,1.68,8.019,4.897c0.528,0.816,1.44,1.297,2.401,1.297
			c0.96,0,1.874-0.48,2.401-1.297C29.52,6.226,32.304,4.497,35.474,4.497 M35.474,1.616c-3.745,0-7.587,1.873-10.468,6.242
			c-2.881-4.369-6.723-6.242-10.468-6.242c-10.372,0-20.12,14.117-7.731,27.851c6.723,7.443,14.405,15.557,17.143,18.486
			c0.288,0.287,0.672,0.432,1.057,0.432s0.768-0.145,1.056-0.432c2.737-2.881,10.324-10.949,17.143-18.486
			C55.593,15.733,45.798,1.616,35.474,1.616L35.474,1.616z"/>
	</g>
</g>
<g id="Layer_4" display="none">
	<path display="inline" fill-rule="evenodd" clip-rule="evenodd" fill="#163151" d="M18.143,25.865c0,2.172,0.004,4.249-0.009,6.326
		c-0.004,0.369-0.025,0.755-0.142,1.094c-0.352,1.043-1.502,1.446-2.429,0.863c-0.318-0.193-0.588-0.455-0.85-0.721
		c-4.249-4.24-8.497-8.485-12.737-12.729c-1.29-1.292-1.3-2.073-0.043-3.335c4.283-4.287,8.575-8.57,12.862-12.861
		c0.082-0.082,0.159-0.163,0.245-0.241c0.575-0.519,1.202-0.893,2.013-0.532c0.807,0.361,1.094,1.03,1.09,1.872
		c-0.004,2.141,0,4.283,0,6.553c0.339,0,0.64-0.009,0.94,0c3.716,0.107,7.434,0.073,11.133,0.365
		c4.185,0.334,8.214,1.373,11.802,3.717c3.622,2.36,5.64,5.759,6.507,9.956c1.115,5.386,0.188,10.484-1.923,15.454
		c-0.489,1.154-0.987,2.305-1.494,3.455c-0.103,0.231-0.171,0.523-0.352,0.669c-0.335,0.267-0.729,0.438-1.103,0.645
		c-0.202-0.396-0.562-0.794-0.58-1.193c-0.017-0.97,0.155-1.936,0.198-2.905c0.137-2.932-0.073-5.828-1.116-8.604
		c-1.502-3.983-4.601-6.146-8.601-6.927c-2.811-0.55-5.708-0.713-8.58-0.889C22.731,25.758,20.473,25.865,18.143,25.865z"/>
</g>
<g id="Layer_3" display="none">
	<path display="inline" fill-rule="evenodd" clip-rule="evenodd" fill="#163151" d="M0.999,24.959c0-4.871,0-9.737,0-14.603
		c0-5.508,3.863-9.352,9.385-9.356c9.8,0,19.6,0,29.399,0c5.228,0.004,9.201,3.935,9.211,9.144c0.01,9.896,0.01,19.797,0,29.698
		c-0.01,5.199-3.983,9.154-9.191,9.154C29.964,49,20.136,49,10.297,48.996c-5.431,0-9.289-3.889-9.298-9.338
		C0.999,34.76,0.999,29.859,0.999,24.959z M20.902,27.109c-0.294-0.404-0.487-0.727-0.738-0.982
		c-1.784-1.804-3.568-3.603-5.372-5.377c-1.283-1.264-2.257-1.254-3.521-0.015c-0.878,0.868-1.755,1.736-2.614,2.623
		c-1.148,1.177-1.167,2.112-0.01,3.275c3.549,3.564,7.108,7.123,10.677,10.672c1.177,1.178,2.156,1.182,3.376,0.039
		c0.656-0.617,1.278-1.273,1.915-1.91c5.512-5.512,11.029-11.024,16.536-16.542c1.38-1.379,1.375-2.392,0.02-3.771
		c-0.811-0.83-1.625-1.669-2.469-2.469c-1.226-1.148-2.194-1.133-3.381,0.039c-1.751,1.736-3.487,3.487-5.232,5.228
		C27.1,20.913,24.104,23.908,20.902,27.109z"/>
</g>
<g id="Layer_7" display="none">
	<g display="inline">
		<path fill="#026FB6" d="M36.527,5.345h-3.471c-0.489,0-0.934-0.295-1.125-0.747C31.045,2.477,28.195,1,25,1
			s-6.045,1.477-6.931,3.595c-0.188,0.455-0.631,0.749-1.124,0.749H13.47v6.267h23.057V5.345z"/>
		<path fill="#026FB6" d="M45.579,8.631h-6.613v4.194c0,0.674-0.544,1.219-1.218,1.219H12.252c-0.675,0-1.219-0.544-1.219-1.219
			V8.631H4.421V49h41.158V8.631z M18.669,20.57c0.826-0.591,1.983-0.409,2.581,0.43l2.511,3.509l8.248-7.073
			c0.771-0.665,1.938-0.582,2.607,0.2c0.664,0.776,0.573,1.944-0.201,2.607l-9.781,8.391c-0.334,0.29-0.762,0.445-1.205,0.445
			c-0.069,0-0.146-0.006-0.222-0.014c-0.512-0.062-0.98-0.338-1.283-0.762l-3.687-5.154C17.646,22.323,17.837,21.165,18.669,20.57z
			 M34.419,35.589l-9.783,8.391c-0.334,0.288-0.763,0.445-1.205,0.445c-0.069,0-0.146-0.005-0.222-0.012
			c-0.512-0.064-0.981-0.34-1.283-0.764l-3.686-5.157c-0.593-0.832-0.403-1.986,0.431-2.582c0.826-0.595,1.982-0.407,2.581,0.432
			l2.511,3.514l8.247-7.078c0.771-0.664,1.938-0.578,2.61,0.201C35.283,33.752,35.193,34.925,34.419,35.589z"/>
	</g>
</g>
<g id="Layer_8" display="none">
	<g display="inline">
		<path fill="#163151" d="M18.677,45.239C19.908,47.474,22.27,49,25.002,49c2.731,0,5.09-1.521,6.321-3.757
			c-2.112,0.218-4.266,0.363-6.321,0.363C22.945,45.606,20.792,45.458,18.677,45.239z"/>
		<path fill="#163151" d="M25,7.437c1.776,0,3.219-1.443,3.219-3.219C28.219,2.444,26.776,1,25,1c-1.775,0-3.219,1.443-3.219,3.218
			C21.781,5.993,23.224,7.437,25,7.437z"/>
		<path fill="#163151" d="M7.129,41.335C11.038,42.183,18.56,43.603,25,43.603c6.44,0,13.957-1.396,17.87-2.229
			c0.411-0.088,0.554-0.406,0.597-0.541c0.043-0.137,0.115-0.493-0.183-0.823c-0.281-0.309-0.594-0.631-0.923-0.968
			c-2.455-2.529-6.159-6.35-5.84-13.065c0.488-10.202-2.369-14.906-10.181-16.784C25.985,9.109,25.492,9.066,25,9.066
			c-0.49,0-0.983,0.043-1.34,0.126c-7.814,1.878-10.667,6.588-10.18,16.798c0.32,6.723-3.39,10.518-5.841,13.03
			C7.312,39.355,7,39.671,6.721,39.973C6.42,40.3,6.488,40.654,6.532,40.795C6.572,40.928,6.714,41.246,7.129,41.335z"/>
	</g>
</g>
<g id="Layer_8_copy">
	<g>
		<path fill="#EE803D" d="M18.677,45.239C19.908,47.474,22.27,49,25.002,49c2.731,0,5.09-1.521,6.321-3.757
			c-2.112,0.218-4.266,0.363-6.321,0.363C22.945,45.606,20.792,45.458,18.677,45.239z"/>
		<path fill="#EE803D" d="M25,7.437c1.776,0,3.219-1.443,3.219-3.219C28.219,2.444,26.776,1,25,1c-1.775,0-3.219,1.443-3.219,3.218
			C21.781,5.993,23.224,7.437,25,7.437z"/>
		<path fill="#EE803D" d="M7.129,41.335C11.038,42.183,18.56,43.603,25,43.603c6.44,0,13.957-1.396,17.87-2.229
			c0.411-0.088,0.554-0.406,0.597-0.541c0.043-0.137,0.115-0.493-0.183-0.823c-0.281-0.309-0.594-0.631-0.923-0.968
			c-2.455-2.529-6.159-6.35-5.84-13.065c0.488-10.202-2.369-14.906-10.181-16.784C25.985,9.109,25.492,9.066,25,9.066
			c-0.49,0-0.983,0.043-1.34,0.126c-7.814,1.878-10.667,6.588-10.18,16.798c0.32,6.723-3.39,10.518-5.841,13.03
			C7.312,39.355,7,39.671,6.721,39.973C6.42,40.3,6.488,40.654,6.532,40.795C6.572,40.928,6.714,41.246,7.129,41.335z"/>
	</g>
</g>
<g id="Layer_9" display="none">
	<g display="inline">
		<path fill="#026FB6" d="M32.955,31.569c-0.125,0.126-0.884,0.379-1.135,0.506h-0.129c2.906,1.264,6.947,3.031,8.465,6.947
			c0,0,0.632,1.895,0.759,3.031h7.829c0.127,0,0.254-0.128,0.254-0.128c0-0.125,0.126-0.251,0.131-0.125
			c0-0.759-0.253-5.179-0.38-5.685l-0.126-0.252c-0.886-2.4-3.916-3.537-5.307-4.043c-0.377-0.125-0.632-0.125-0.757-0.252
			c-1.39-0.63-2.021-1.389-2.021-3.662c0-0.253,0-0.505,0.251-0.632c2.272-1.77,3.031-5.811,3.031-8.969
			c0-3.032-2.779-5.558-6.064-5.558c-3.41,0-6.062,2.525-6.062,5.558c0,3.158,0.758,7.201,3.03,8.969
			c0.252,0.127,0.252,0.379,0.252,0.632C34.977,30.307,34.345,30.939,32.955,31.569z"/>
		<path fill="#026FB6" d="M1.502,49h37.136c0.127,0,0.252-0.127,0.379-0.252c0.127-0.126,0.253-0.252-0.001-0.506
			c0-1.138-0.38-6.443-0.632-7.327l-0.126-0.379c-1.517-4.168-6.569-6.062-9.096-6.947c-0.505-0.253-0.883-0.378-1.136-0.505
			c-2.399-1.009-3.536-2.271-3.536-6.189c0-0.503,0.126-0.883,0.504-1.135c3.915-3.033,5.306-9.854,5.306-15.286
			C30.302,5.295,25.628,1,19.944,1C14.26,1,9.586,5.168,9.586,10.474c0,5.432,1.39,12.379,5.306,15.413
			c0.252,0.253,0.505,0.758,0.378,1.136c0,3.917-1.137,5.053-3.537,6.19c-0.252,0.126-0.631,0.377-1.137,0.503
			c-2.526,0.886-7.705,2.78-9.095,6.947c-0.378,1.013-0.631,6.442-0.631,7.833C0.871,48.748,1.124,49,1.502,49z"/>
	</g>
</g>
<g id="Layer_10" display="none">
	<g display="inline">
		<path fill="#026FB6" d="M8.53,26.592l0.336,0.195l0.152,0.357c0.849,1.992-0.809,4.812-2.383,6.852
			c2.372-0.463,4.473-1.629,7.26-3.898c0.741-0.449,1.447-0.602,2.142-0.523c1.239,0.137,2.06,0.178,3.064,0.227
			c0.804,0.014,1.516-0.061,2.445-0.184c10.329-0.477,18.345-6.803,18.345-14.408c0-7.963-8.724-14.444-19.446-14.444
			c-0.123,0-0.249,0.008-0.37,0.014l-0.339,0.014l-0.653-0.028c-2.433,0-4.807,0.486-7.046,1.441C5.31,4.646,1,9.739,1,15.209
			C1,19.672,3.744,23.82,8.53,26.592z"/>
		<path fill="#026FB6" d="M21.753,31.936c-0.932,0.133-1.812,0.195-2.667,0.195c-0.61-0.029-1.143-0.055-1.7-0.094
			c-0.052,0.387-0.08,0.777-0.08,1.172c0,5.523,5.242,10.18,12.32,11.408c1.036,0.178,4.113,0.547,7.142,0.246
			c0.023-0.002,0.044-0.002,0.065-0.004c0.391,0.078,0.79,0.227,1.2,0.479c2.79,2.268,4.89,3.436,7.259,3.896
			c-1.52-1.973-3.117-4.672-2.451-6.65c0.035-0.109,0.117-0.197,0.219-0.254c3.775-2.252,5.94-5.566,5.94-9.121
			c0-4.43-3.504-8.561-8.927-10.52c-0.042-0.02-0.086-0.03-0.126-0.047C36.578,27.861,29.779,31.57,21.753,31.936z"/>
	</g>
</g>
</svg>
